<svg xmlns="http://www.w3.org/2000/svg" viewBox="0 0 100 100">
  <path d="M20 70 C 10 50, 25 20, 60 20 C 85 20, 90 40, 80 60 C 70 80, 45 85, 30 80 C 15 75, 10 90, 20 90 C 35 90, 50 70, 75 70" fill="none" stroke="#D45D3B" stroke-width="6" stroke-linecap="round" opacity="0.95" />
  <path d="M35 80 C 20 65, 35 35, 65 35 C 80 35, 80 50, 70 65" fill="none" stroke="#E07A5F" stroke-width="4" stroke-linecap="round" opacity="0.75" />
  <polygon points="70,30 80,40 50,70 40,60" fill="#F5EBE1" stroke="#1E1B18" stroke-width="2.5" stroke-linejoin="round" />
  <polygon points="50,70 40,60 28,72" fill="#FAF6F0" stroke="#1E1B18" stroke-width="2.5" stroke-linejoin="round" />
  <polygon points="34,66 30,62 24,76" fill="#1E1B18" stroke="#1E1B18" stroke-width="1.5" stroke-linejoin="round" />
  <circle cx="85" cy="70" r="5" fill="#D45D3B" />
  <circle cx="75" cy="85" r="4" fill="#E07A5F" />
  <circle cx="92" cy="45" r="3.5" fill="#7E191B" />
</svg>
